<?xml version="1.0" standalone="no"?>
<!DOCTYPE svg PUBLIC "-//W3C//DTD SVG 20010904//EN"
 "http://www.w3.org/TR/2001/REC-SVG-20010904/DTD/svg10.dtd">
<svg version="1.0" xmlns="http://www.w3.org/2000/svg"
 width="700.000000pt" height="700.000000pt" viewBox="0 0 700.000000 700.000000"
 preserveAspectRatio="xMidYMid meet">
<metadata>
Created by potrace 1.11, written by Peter Selinger 2001-2013
</metadata>
<g transform="translate(0.000000,700.000000) scale(0.100000,-0.100000)"
fill="#000000" stroke="none">
<path d="M3245 6563 c-330 -28 -699 -124 -1001 -260 -908 -407 -1573 -1240
-1758 -2201 -45 -237 -51 -304 -50 -607 0 -318 14 -450 74 -700 246 -1032 992
-1856 1995 -2201 165 -57 372 -108 545 -135 174 -27 545 -37 727 -20 508 48
994 219 1415 497 476 315 868 770 1090 1267 202 450 288 839 288 1297 0 484
-95 890 -310 1329 -247 503 -579 906 -995 1208 -404 293 -905 473 -1455 523
-105 9 -470 11 -565 3z m455 -193 c74 -6 180 -17 235 -26 124 -19 390 -83 409
-98 8 -6 84 -136 170 -289 l156 -278 -367 -614 -367 -615 -442 0 -441 0 -358
598 c-197 328 -363 604 -368 613 -8 13 22 75 133 275 79 143 151 271 161 285
21 30 96 55 279 93 267 57 540 75 800 56z m1866 -880 c308 -304 616 -846 709
-1250 l17 -75 -163 -282 -163 -283 -716 0 -716 0 -204 353 c-112 193 -208 359
-213 368 -7 12 79 163 359 633 l369 617 322 -3 323 -3 76 -75z m-3049 -546
l369 -617 -209 -363 -209 -364 -720 2 -720 3 -163 280 -162 279 29 111 c62
230 189 518 323 735 80 128 213 302 329 432 l97 107 62 4 c34 2 184 4 333 5
l272 2 369 -616z m154 -1905 c111 -193 202 -357 202 -363 0 -6 -159 -288 -351
-626 l-351 -615 -329 -3 -329 -2 -99 102 c-288 298 -509 664 -643 1066 -22 64
-45 144 -52 177 l-12 60 128 220 c70 121 143 246 162 278 l34 57 719 0 718 0
203 -351z m3459 70 l162 -281 -18 -72 c-57 -236 -181 -518 -334 -765 -117
-189 -312 -435 -409 -517 l-35 -29 -324 0 -324 0 -363 618 -364 618 28 47 c16
26 108 185 206 355 l177 307 718 0 718 0 162 -281z m-1811 -1172 c199 -338
361 -617 361 -620 0 -4 -70 -132 -155 -285 l-155 -279 -73 -22 c-108 -32 -277
-68 -412 -88 -172 -25 -613 -25 -775 0 -136 21 -320 61 -405 88 l-60 19 -154
274 c-84 151 -153 277 -153 281 0 3 159 285 353 626 l353 619 457 0 457 0 361
-613z"/>
</g>
</svg>
